<svg xmlns="http://www.w3.org/2000/svg" width="15" height="14" viewBox="0 0 15 14">
    <g fill="#FFF">
        <path d="M8.194 0C4.44 0 1.388 2.99 1.388 6.648c-.002.058-.037 1.026.245 2.069l-.917-.524c-.228-.13-.518-.054-.651.168-.132.223-.056.508.171.638l2.149 1.227.013.005c.023.012.046.02.071.029.017.006.033.012.05.016.02.004.04.005.062.007.014.002.029.006.044.006l.024-.003c.008 0 .015.002.023 0 .012 0 .023-.005.034-.007.023-.004.045-.009.067-.016l.054-.021c.02-.01.039-.02.057-.032.017-.01.033-.022.048-.034.017-.014.032-.03.046-.046.014-.015.026-.03.038-.047.006-.01.015-.016.02-.025.005-.008.005-.016.008-.023.007-.013.017-.024.022-.038l.855-2.072c.098-.24-.02-.511-.263-.608-.244-.095-.521.02-.62.258L2.6 8.64c-.293-.96-.26-1.946-.26-1.973C2.34 3.505 4.968.933 8.195.933c3.228 0 5.853 2.572 5.853 5.734 0 3.161-2.625 5.733-5.853 5.733-.263 0-.476.21-.476.467s.213.466.476.466c3.753 0 6.806-2.99 6.806-6.666S11.947 0 8.194 0z"/>
        <path d="M8.046 8.294c.048.021.099.029.15.033.01 0 .02.006.031.006.056 0 .11-.013.161-.033.015-.006.028-.014.042-.021.04-.02.076-.046.11-.077.006-.007.016-.01.023-.017l2.964-3.155c.186-.198.186-.518 0-.715-.185-.198-.485-.198-.67 0L8.116 7.23 5.659 6.135c-.244-.108-.52.013-.622.27-.101.258.013.554.254.662l2.753 1.227h.002z"/>
    </g>
</svg>
